{"title":"Mon meilleur ami aka My best Friend[x264][AC3(5.1)].Nordic_Sub.m","uid":5264621,"size":1117751295,"categoryP":"video","categoryS":"movies","magnet":"?xt=urn:btih:58f43342ae3618547098bf0fd1f6e1c546e750ff&amp;dn=Mon+meilleur+ami+aka+My+best+Friend%5Bx264%5D%5BAC3%285.1%29%5D.Nordic_Sub.m&amp;tr=udp%3A%2F%2Ftracker.openbittorrent.com%3A80&amp;tr=udp%3A%2F%2Fopen.demonii.com%3A1337&amp;tr=udp%3A%2F%2Ftracker.coppersurfer.tk%3A6969&amp;tr=udp%3A%2F%2Fexodus.desync.com%3A6969","seeders":3,"leechers":3,"uploader":"Zen_Bud","files":-1,"time":1262851493,"description":"General\nComplete name                    : Mon meilleur ami .mkv\nFormat                           : Matroska\nFile size                        : 1.04 GiB\nDuration                         : 1h 31mn\nOverall bit rate                 : 1 637 Kbps\n\n\nVideo\nID                               : 1\nFormat                           : AVC\nDuration                         : 1h 31mn\nBit rate                         : 1 157 Kbps\nWidth                            : 718 pixels\nHeight                           : 430 pixels\nDisplay aspect ratio             : 2.35:1\nFrame rate                       : 25.000 fps\nResolution                       : 8 bits\nColorimetry                      : 4:2:0\nScan type                        : Progressive\nBits/(Pixel*Frame)               : 0.150\nStream size                      : 753 MiB (71%)\nWriting library                  : x264 core 79\n\n\nAudio\nID                               : 2\nFormat                           : AC-3\nFormat/Info                      : Audio Coding 3\nCodec ID                         : A_AC3\nDuration                         : 1h 31mn\nBit rate mode                    : Constant\nBit rate                         : 448 Kbps\nChannel(s)                       : 6 channels\nChannel positions                : Front: L C R, Surround: L R, LFE\nSampling rate                    : 48.0 KHz\nStream size                      : 292 MiB (27%)\nLanguage                         : French\n\n\nText #1\nLanguage                         : Danish\n\nText #2\nLanguage                         : Swedish\n\nText #3\nLanguage                         : Norwegian\n\nText #4\nLanguage                         : Finnish\n\n","torrent":{"xt":"urn:btih:58f43342ae3618547098bf0fd1f6e1c546e750ff","amp;dn":"Mon+meilleur+ami+aka+My+best+Friend%5Bx264%5D%5BAC3%285.1%29%5D.Nordic_Sub.m","amp;tr":["udp%3A%2F%2Ftracker.openbittorrent.com%3A80","udp%3A%2F%2Fopen.demonii.com%3A1337","udp%3A%2F%2Ftracker.coppersurfer.tk%3A6969","udp%3A%2F%2Fexodus.desync.com%3A6969"],"infoHash":"58f43342ae3618547098bf0fd1f6e1c546e750ff","infoHashBuffer":{"type":"Buffer","data":[88,244,51,66,174,54,24,84,112,152,191,15,209,246,225,197,70,231,80,255]},"announce":[],"urlList":[]}}